<?xml version="1.0" encoding="utf-8" ?><svg xmlns="http://www.w3.org/2000/svg" xmlns:xlink="http://www.w3.org/1999/xlink" width="1024" height="1024" viewBox="0 0 1024 1024"><path fill="#FCFCFC" d="M0 0L1024 0L1024 1024L0 1024L0 0Z"/><path fill="#0D0C4D" d="M350.258 486.253C336.437 467.409 330.501 443.732 330.082 420.565C329.181 370.673 363.549 324.741 411.541 311.201C431.139 305.672 457.114 307.098 478 307.29L545.851 308.132C533.309 322.114 518.631 335.078 505.648 348.728C501.953 352.613 496.1 359.265 491.629 361.857C483.226 362.159 474.819 362.344 466.41 362.411C461.71 362.413 450.375 362.06 446.203 363.07C427.365 368.335 418.649 372.685 408.138 390.272C387.542 424.704 408.818 468.618 449.122 472.558C469.805 474.58 490.631 472.819 511.291 474.427C519.736 475.575 517.444 483.381 513.74 488.244C506.505 497.74 497.483 506.39 489.104 514.927C483.799 520.332 477.106 529.383 471.284 533.743L454.877 533.965C445.259 534.51 433.536 534.396 424.153 533.003C405.672 530.258 388.957 522.017 374.178 510.801C369.399 507.175 365.459 504.377 361.879 499.492C358.645 497.294 352.298 489.691 350.258 486.253Z"/><path fill="#0D0C4D" d="M350.258 486.253C336.437 467.409 330.501 443.732 330.082 420.565C329.181 370.673 363.549 324.741 411.541 311.201C431.139 305.672 457.114 307.098 478 307.29L545.851 308.132C533.309 322.114 518.631 335.078 505.648 348.728C501.953 352.613 496.1 359.265 491.629 361.857C483.226 362.159 474.819 362.344 466.41 362.411C461.71 362.413 450.375 362.06 446.203 363.07C442.908 362.472 439.36 362.975 436.077 363.349C394.141 368.126 354.365 396.41 347.272 440.007C345.361 451.749 345.789 463.286 347.683 475.011C348.002 477.09 350.248 484.888 350.258 486.253Z"/><defs><linearGradient id="gradient_0" gradientUnits="userSpaceOnUse" x1="518.81439" y1="472.16589" x2="354.56155" y2="416.88852"><stop offset="0" stop-color="#B06341"/><stop offset="1" stop-color="#D37A54"/></linearGradient></defs><path fill="url(#gradient_0)" d="M350.258 486.253C350.248 484.888 348.002 477.09 347.683 475.011C345.789 463.286 345.361 451.749 347.272 440.007C354.365 396.41 394.141 368.126 436.077 363.349C439.36 362.975 442.908 362.472 446.203 363.07C427.365 368.335 418.649 372.685 408.138 390.272C387.542 424.704 408.818 468.618 449.122 472.558C469.805 474.58 490.631 472.819 511.291 474.427C519.736 475.575 517.444 483.381 513.74 488.244C506.505 497.74 497.483 506.39 489.104 514.927C483.799 520.332 477.106 529.383 471.284 533.743L454.877 533.965C466.311 521.577 479.018 510.032 490.467 497.619C496.005 492.13 493.156 485.549 485.433 485.449C456.109 485.069 431.694 488.584 408.488 466.24C396.688 454.666 389.85 438.957 389.421 422.433C389.266 405.015 395.918 388.226 407.96 375.64C407.158 375.927 406.365 376.235 405.58 376.565C386.043 384.812 366.111 403.953 358.398 423.937C348.134 450.53 350.893 473.784 361.879 499.492C358.645 497.294 352.298 489.691 350.258 486.253Z"/><path fill="#0D0C4D" d="M537.698 569.114C553.008 569.246 581.374 568.024 595.032 571.097C612.156 574.955 627.007 585.541 636.239 600.471C645.752 615.584 649.416 633.849 645.372 651.341C640.599 672.157 627.691 690.197 609.529 701.434C587.144 714.947 570.737 715.195 546.112 715.232L513.217 715.183C513.933 708.442 515.953 698.377 517.137 691.313L523.471 652.532C528.004 625.561 532.337 595.665 537.698 569.114Z"/><path fill="#FCFCFC" d="M558.301 594.506C578.914 594.263 600.818 593.553 613.898 612.975C620.649 623.213 623.125 635.687 620.798 647.728C617.921 662.185 609.281 672.978 597.265 681.038C580.438 691.291 561.799 690.134 542.942 689.947C547.129 658.954 553.504 625.789 558.301 594.506Z"/><path d="M552.087 350.247C559.348 342.288 566.653 334.166 574.099 326.504C582.711 317.642 589.87 308.095 603.41 308.007C617.376 307.916 631.513 307.45 645.494 307.292C652.549 307.212 654.005 313.866 649.868 318.538C639.486 330.169 627.768 340.659 617.17 352.125C632.413 352.855 647.975 352.214 663.245 352.321C669.657 352.366 677.501 351.46 683.694 352.382C690.151 353.344 695.867 360.772 695.044 367.235C694.823 369.672 693.869 372.864 692.409 374.959C683.92 384.732 674.109 394.492 665.151 403.801L612.899 458.433L570.82 502.437C562.02 511.71 552.636 521.829 543.068 530.328C541.557 531.636 538.496 532.526 536.57 532.635C521.311 533.497 505.896 533.417 490.626 533.724C488.362 533.769 485.628 529.768 487.057 527.818C492.697 520.12 500.125 512.879 506.704 505.862L585.569 421.736C597.082 409.355 610.834 396.597 620.293 382.444C622.738 378.786 623.231 374.21 621.635 370.045C619.553 364.609 613.648 362.205 608.59 360.197C606.72 359.439 604.824 358.748 602.905 358.124C600.04 360.874 581.074 360.023 576.059 360.046L537.417 360.531C537.61 360.214 537.807 359.899 538.009 359.588C540.667 355.497 543.467 351.963 548.523 350.944L552.087 350.247Z"/><path fill="#B76541" d="M552.087 350.247C563.97 350.031 591.201 354.181 602.905 358.124C600.04 360.874 581.074 360.023 576.059 360.046L537.417 360.531C537.61 360.214 537.807 359.899 538.009 359.588C540.667 355.497 543.467 351.963 548.523 350.944L552.087 350.247Z"/><path fill="#0D0C4D" d="M364.679 604.704C376.938 604.838 387.296 606.602 397.46 614.061C408.059 621.833 415.047 633.577 416.821 646.6C420.774 674.382 402.431 701.352 377.132 711.79C371.168 714.251 365.295 715.192 358.951 716.05C344.765 716.513 333.679 713.354 322.784 703.881C312.147 694.512 305.582 681.364 304.484 667.231C303.028 646.106 315.6 626.376 332.735 614.977C343.431 607.861 352.07 605.468 364.679 604.704Z"/><path fill="#FCFCFC" d="M362.117 628.689C388.301 626.175 400.891 656.871 385.82 676.39C378.635 685.696 372.777 688.869 361.349 690.982C353.667 691.459 346.453 690.834 340.116 685.861C327.178 675.708 326.713 654.12 336.803 641.85C343.783 633.363 351.45 629.895 362.117 628.689Z"/><path fill="#0D0C4D" d="M235.96 566.699C249.93 564.83 266.773 567.939 278.825 575.03C295.609 584.905 303.861 595.256 309.029 613.668C300.213 613.482 291.394 613.472 282.578 613.637C281.484 611.551 280.186 609.579 278.706 607.747C271.054 598.416 258.367 592.541 246.499 591.661C218.612 589.593 190.784 612.287 188.715 640.263C187.816 653.316 192.197 666.184 200.875 675.976C218.887 696.502 249.295 695.188 268.94 677.576C272.08 674.265 273.485 672.43 276.166 668.697C284.539 668.464 294.496 668.828 302.987 668.918C299.997 675.098 297.718 679.844 293.643 685.433C269.248 718.894 221.523 726.976 188.257 701.445C155.532 676.329 153.634 627.992 178.901 596.788C193.556 578.689 212.963 569.165 235.96 566.699Z"/><path fill="#0D0C4D" d="M708.33 605.209C723.89 603.283 742.926 610.844 751.938 623.925C761.943 638.448 763.014 651.55 760.169 668.501L675.551 668.495C676.119 670.623 676.637 672.323 677.464 674.382C684.695 692.38 707.206 697.075 722.482 686.564C725.519 684.474 727.96 682.012 730.645 679.427C738.108 679.362 745.655 679.449 753.125 679.479C754.469 679.494 754.675 679.342 755.791 680.002C756.355 683.933 750.529 690.976 748.327 694.089C731.457 717.943 692.093 723.774 668.965 704.864C658.293 696.14 651.602 683.472 650.412 669.74C648.261 646.577 660.684 626.791 679.693 614.306C688.675 608.407 697.753 606.105 708.33 605.209Z"/><path fill="#FCFCFC" d="M705.141 627.107C720.301 625.948 730.812 632.735 735.199 647.396C727.663 647.801 718.888 647.574 711.25 647.543C701.637 647.542 689.924 647.817 680.509 647.146C681.46 645.292 682.52 643.496 683.685 641.768C688.943 633.953 695.84 628.869 705.141 627.107Z"/><path d="M557.461 364.903C570.135 364.142 586.315 364.515 599.208 364.53L529.966 437.593C523.764 444.102 505.788 464.213 499.189 468.344C493.858 468.465 480.953 468.874 475.834 468.088C470.295 468.034 463.79 467.608 458.364 467.813C428.719 468.934 442.007 458.718 455.105 445.013C463.057 436.667 471.084 428.393 479.186 420.191C493.852 405.3 508.561 390.178 523.051 375.099C535.681 361.956 539.581 364.809 557.461 364.903Z"/><path fill="#B76541" d="M557.461 364.903C570.135 364.142 586.315 364.515 599.208 364.53L529.966 437.593C523.764 444.102 505.788 464.213 499.189 468.344C493.858 468.465 480.953 468.874 475.834 468.088L482.453 467.956C487.766 464.119 505.782 445.631 511.28 440.108C524.165 427.044 537.115 414.045 550.132 401.113C563.715 387.484 573.181 377.466 588.391 364.97C578.251 364.943 567.548 365.285 557.461 364.903Z"/><path fill="#0D0C4D" d="M838.586 606.115L863.844 606.235C861.737 611.261 859.328 616.162 857.167 621.368C846.475 646.008 835.589 671.686 824.288 695.974L824.055 695.589C819.567 688.334 812.081 687.175 804.136 687.404C795.396 687.654 788.962 691.306 783.235 697.57C778.132 677.323 773.892 656.714 768.741 636.461C766.183 626.402 763.735 616.546 762.714 606.19C771.233 606.289 779.753 606.27 788.272 606.134C792.868 630.287 797.185 662.061 805.25 684.271C817.001 658.08 827.319 632.319 838.586 606.115Z"/><path fill="#0D0C4D" d="M493.006 606.074C501.285 606.247 510.131 606.061 518.452 606.028C516.444 611.843 513.835 617.283 511.279 622.875C510.216 625.511 509.019 628.285 507.853 630.879C498.201 652.355 489.348 674.789 479.087 695.941C473.925 689.801 468.27 687.116 460.21 687.151C450.364 687.192 444.727 689.972 437.921 696.857L425.331 644.851C423.295 636.642 417.236 614.291 416.893 606.771L417.975 606.248L441.206 606.167C447.065 634.229 448.932 657.568 461.247 683.796C468.848 664.698 476.791 645.482 484.427 626.376C487.067 619.768 489.872 612.41 493.006 606.074Z"/><path fill="#0D0C4D" d="M458.591 691.684C466.051 691.361 473.09 693.241 476.625 700.305C476.532 706.089 475.892 711.274 474.848 716.967C467.363 714.508 462.704 713.829 454.92 713.622C446.909 714.489 444.94 714.701 437.162 717.511C438.97 700.092 439.123 693.881 458.591 691.684Z"/><path fill="#0D0C4D" d="M801.614 691.614C823.375 690.012 823.182 699.558 820.27 717.142C813.805 714.645 810.873 714.156 803.992 713.644C794.554 713.99 791.504 714.139 782.848 717.687C784.14 702.923 785.096 694.731 801.614 691.614Z"/><path fill="#1EABC3" d="M334.933 472.873C335.94 474.145 337.824 477.822 338.736 479.503C352.699 505.226 377.616 525.254 405.426 535.426C395.767 535.346 383.035 529.281 374.727 524.686C355.901 514.276 339.099 494.534 334.933 472.873Z"/></svg>